<svg width="40" height="40" viewBox="0 0 40 40" fill="none" xmlns="http://www.w3.org/2000/svg">
<path d="M17.7767 38.5183C17.36 38.0517 16.8867 37.5217 16.5267 37.4517C15.9449 37.4764 15.3806 37.6578 14.8933 37.9767L14.905 37.9683C14.3167 38.3143 13.6606 38.5292 12.9817 38.5983L12.9617 38.6H12.945C12.7351 38.6002 12.5272 38.5589 12.3333 38.4783L12.3433 38.4817C11.525 38.1417 11.1933 37.195 10.8767 36.2783C10.7497 35.7264 10.488 35.2145 10.115 34.7883L10.1183 34.7917C9.83011 34.6517 9.50902 34.5935 9.19 34.6233H9.19667C8.95333 34.6233 8.69667 34.6383 8.44 34.6533C8.16333 34.67 7.88667 34.6833 7.62333 34.6833C7.3071 34.7132 6.9881 34.6802 6.68463 34.5864C6.38117 34.4926 6.09923 34.3397 5.855 34.1367L5.85833 34.14C5.59611 33.7661 5.41536 33.3414 5.32779 32.8932C5.24022 32.445 5.24779 31.9834 5.35 31.5383L5.34667 31.56C5.44433 30.9901 5.39617 30.4047 5.20667 29.8583L5.21333 29.8833C4.79486 29.5155 4.29232 29.2562 3.75 29.1283L3.72667 29.1233C2.81 28.805 1.86 28.475 1.52333 27.6567C1.42675 27.2153 1.42326 26.7586 1.51309 26.3158C1.60291 25.8731 1.78407 25.4538 2.045 25.085L2.03833 25.095C2.34283 24.6062 2.51884 24.0484 2.55 23.4733V23.465C2.48 23.1033 1.95 22.6317 1.48333 22.215C0.753333 21.5683 0 20.8967 0 19.9983C0 19.1 0.753333 18.4283 1.48167 17.7767C1.94833 17.36 2.47833 16.8867 2.54833 16.5267C2.51451 15.946 2.33387 15.3835 2.02333 14.8917L2.03167 14.905C1.77146 14.5333 1.59183 14.1114 1.50429 13.6662C1.41674 13.2211 1.42323 12.7625 1.52333 12.32L1.52 12.3417C1.86 11.5233 2.80667 11.1917 3.72333 10.875C4.3 10.74 4.80167 10.475 5.21333 10.1117L5.21 10.115C5.3979 9.56933 5.44266 8.98458 5.34 8.41667L5.34333 8.43667C5.24511 7.99246 5.24032 7.53268 5.32926 7.08653C5.4182 6.64037 5.59894 6.21758 5.86 5.845L5.85333 5.855C6.09883 5.65271 6.38185 5.50087 6.68617 5.40821C6.99048 5.31554 7.31009 5.28387 7.62667 5.315H7.61667C7.88333 5.315 8.15833 5.33 8.43333 5.345C8.69 5.36 8.94667 5.375 9.19 5.375C9.51042 5.40435 9.83275 5.34496 10.1217 5.20333L10.1117 5.20833C10.47 4.79833 10.735 4.29833 10.865 3.745L10.87 3.72167C11.19 2.805 11.52 1.855 12.3367 1.51833C12.5275 1.44009 12.732 1.40043 12.9383 1.40167H12.9567H12.955C13.6817 1.47667 14.3417 1.70167 14.9233 2.045L14.9 2.03333C15.3812 2.34975 15.9395 2.52896 16.515 2.55167H16.5217C16.8833 2.48167 17.355 1.95167 17.7717 1.485C18.4283 0.753333 19.1017 0 20 0C20.8983 0 21.57 0.753333 22.2217 1.48333C22.6383 1.95 23.1117 2.48 23.4717 2.55C24.0533 2.52315 24.6172 2.34132 25.105 2.02333L25.0917 2.03167C25.6805 1.68576 26.3372 1.47141 27.0167 1.40333L27.0367 1.40167H27.0533C27.27 1.40167 27.4767 1.445 27.665 1.52333L27.655 1.52C28.4733 1.86 28.805 2.80667 29.1217 3.72333C29.2567 4.3 29.5217 4.8 29.8833 5.21333L29.88 5.21C30.1688 5.34978 30.4907 5.40689 30.81 5.375H30.8033C31.0467 5.375 31.3033 5.36 31.56 5.34667C31.8367 5.33167 32.1133 5.31667 32.3767 5.31667C32.6931 5.28708 33.0123 5.32013 33.316 5.41393C33.6197 5.50773 33.902 5.66044 34.1467 5.86333L34.1433 5.86C34.4047 6.23427 34.5848 6.65911 34.6721 7.1072C34.7593 7.55528 34.7518 8.01667 34.65 8.46167L34.6533 8.44C34.5554 9.01005 34.6042 9.59565 34.795 10.1417L34.7883 10.1183C35.1967 10.4783 35.6983 10.7433 36.2517 10.8717L36.275 10.8767C37.1917 11.1967 38.1417 11.5267 38.4783 12.3433C38.5739 12.7847 38.5771 13.241 38.4876 13.6836C38.3981 14.1262 38.2179 14.5455 37.9583 14.915L37.965 14.905C37.6597 15.3901 37.482 15.9445 37.4483 16.5167V16.5267C37.5183 16.8883 38.0483 17.36 38.515 17.7767C39.25 18.4317 40.0033 19.1033 40.0033 20.0017C40.0033 20.9 39.25 21.5733 38.52 22.225C38.0533 22.6417 37.5233 23.1133 37.4533 23.475C37.49 24.08 37.6783 24.635 37.9783 25.1117L37.97 25.0967C38.2303 25.468 38.4099 25.8896 38.4975 26.3346C38.585 26.7795 38.5785 27.2378 38.4783 27.68L38.4817 27.6583C38.1433 28.4783 37.195 28.8083 36.2783 29.125C35.726 29.2519 35.214 29.5143 34.7883 29.8883L34.7917 29.885C34.6038 30.4307 34.559 31.0154 34.6617 31.5833L34.6583 31.5633C34.7563 32.0073 34.761 32.4668 34.672 32.9126C34.5831 33.3585 34.4025 33.781 34.1417 34.1533L34.1483 34.1433C33.9033 34.346 33.6207 34.4983 33.3166 34.5916C33.0126 34.6848 32.6932 34.7171 32.3767 34.6867H32.3867C32.12 34.6867 31.845 34.6717 31.57 34.6567C31.3181 34.6394 31.0658 34.6294 30.8133 34.6267C30.4929 34.5967 30.1704 34.6561 29.8817 34.7983L29.8917 34.7933C29.5249 35.2123 29.2663 35.7147 29.1383 36.2567L29.1333 36.28C28.8133 37.1967 28.4833 38.1467 27.6667 38.4833C27.4758 38.5616 27.2713 38.6012 27.065 38.6H27.0467H27.0483C26.3536 38.5307 25.6824 38.3106 25.0817 37.955L25.1033 37.9667C24.6223 37.6501 24.0638 37.4714 23.4883 37.45H23.4817C23.12 37.52 22.6483 38.05 22.2317 38.5167C21.5733 39.2467 20.9017 40 20.0017 40C19.1017 40 18.4317 39.2467 17.7783 38.5183H17.7767ZM23.6633 12.1817L15.53 26.9617C15.5069 27.0037 15.4951 27.0511 15.4958 27.0991C15.4965 27.1471 15.5097 27.1941 15.5341 27.2355C15.5585 27.2769 15.5932 27.3112 15.6348 27.335C15.6765 27.3589 15.7237 27.3715 15.7717 27.3717H17.1833C17.2324 27.3717 17.2805 27.3586 17.3227 27.3337C17.365 27.3088 17.3997 27.273 17.4233 27.23V27.2283L25.545 12.4467C25.5681 12.4046 25.5799 12.3572 25.5792 12.3092C25.5785 12.2612 25.5653 12.2142 25.5409 12.1728C25.5165 12.1315 25.4818 12.0972 25.4402 12.0733C25.3985 12.0494 25.3513 12.0368 25.3033 12.0367H23.905C23.8556 12.0368 23.8071 12.0502 23.7646 12.0754C23.7221 12.1006 23.6871 12.1367 23.6633 12.18V12.1817ZM22.49 19.7633C22.2782 19.9384 22.1077 20.1581 21.9908 20.4068C21.8738 20.6554 21.8132 20.9269 21.8133 21.2017V25.2033C21.8133 25.7767 22.0767 26.2883 22.4883 26.625L22.4917 26.6283C22.9183 26.985 23.4717 27.2 24.0767 27.2C24.6817 27.2 25.235 26.9833 25.665 26.625L25.6617 26.6283C26.0783 26.29 26.3417 25.7783 26.3417 25.205V21.205C26.3417 20.6317 26.0833 20.1167 25.6783 19.7733L25.675 19.7717C25.2526 19.3921 24.7045 19.1825 24.1367 19.1833H24.085H24.0883H24.0367C23.4672 19.1825 22.9171 19.39 22.49 19.7667L22.4933 19.765L22.49 19.7633ZM15.4167 12.585C15.2049 12.7601 15.0344 12.9798 14.9174 13.2285C14.8004 13.4771 14.7399 13.7485 14.74 14.0233V18.0233C14.74 18.5983 15.0017 19.1133 15.415 19.4517L15.4183 19.455C15.845 19.8167 16.4 20.035 17.0067 20.035C17.6133 20.035 18.17 19.815 18.5983 19.4517L18.595 19.455C19.015 19.1133 19.28 18.5983 19.28 18.02V14.03C19.28 13.4517 19.0183 12.9367 18.605 12.5933L18.6017 12.5917C18.1566 12.2126 17.591 12.0045 17.0064 12.0048C16.4217 12.0051 15.8563 12.2138 15.4117 12.5933L15.415 12.59L15.4167 12.585ZM23.7133 25.42C23.6775 25.3915 23.6485 25.3552 23.6286 25.314C23.6087 25.2727 23.5984 25.2275 23.5983 25.1817V21.18C23.5983 21.0833 23.6433 20.9983 23.7117 20.9433C23.7982 20.8683 23.9088 20.8268 24.0233 20.8267H24.045H24.0433H24.0633C24.1781 20.8266 24.2892 20.8673 24.3767 20.9417C24.4123 20.97 24.4411 21.006 24.461 21.047C24.4809 21.0879 24.4914 21.1328 24.4917 21.1783V25.1817C24.4917 25.2271 24.4815 25.2719 24.4619 25.3129C24.4423 25.3539 24.4137 25.3899 24.3783 25.4183C24.2883 25.4917 24.1717 25.535 24.045 25.535C23.9183 25.535 23.8017 25.4917 23.71 25.4167H23.7117L23.7133 25.42ZM16.6467 18.2433C16.611 18.2146 16.5822 18.1784 16.5623 18.1371C16.5424 18.0959 16.5319 18.0508 16.5317 18.005V14.005C16.5317 13.9083 16.5767 13.8233 16.645 13.7667C16.735 13.6933 16.8517 13.65 16.9783 13.65C17.105 13.65 17.2217 13.6933 17.3133 13.7683H17.3117C17.3475 13.7969 17.3765 13.8331 17.3964 13.8744C17.4163 13.9156 17.4266 13.9609 17.4267 14.0067V18.0083C17.4266 18.054 17.4164 18.099 17.3968 18.1402C17.3772 18.1815 17.3487 18.2178 17.3133 18.2467C17.2233 18.32 17.1067 18.3633 16.98 18.3633C16.8533 18.3633 16.7367 18.32 16.645 18.245H16.6467V18.2433Z" fill="#4FBCAF"/>
</svg>
